<svg xmlns="http://www.w3.org/2000/svg" xmlns:xlink="http://www.w3.org/1999/xlink" width="500" zoomAndPan="magnify" viewBox="0 0 375 374.999991" height="500" preserveAspectRatio="xMidYMid meet" version="1.0"><defs><g/><clipPath id="id1"><path d="M 211 52.375 L 310 52.375 L 310 117 L 211 117 Z M 211 52.375 " clip-rule="nonzero"/></clipPath><clipPath id="id2"><path d="M 63.859375 75.070312 L 311.351562 75.070312 L 311.351562 322.351562 L 63.859375 322.351562 Z M 63.859375 75.070312 " clip-rule="nonzero"/></clipPath></defs><g clip-path="url(#id1)"><path fill="#ff1616" d="M 307.25 83.128906 C 300.203125 77.636719 291.523438 74.648438 282.582031 74.625 L 267.671875 74.589844 L 261.1875 69.054688 L 263.675781 69.285156 C 264.324219 69.34375 264.894531 68.867188 264.957031 68.222656 C 265.015625 67.574219 264.539062 67 263.894531 66.941406 L 258.089844 66.40625 L 252.320312 61.476562 L 259.449219 62.132812 C 260.097656 62.195312 260.671875 61.71875 260.730469 61.070312 C 260.789062 60.425781 260.3125 59.855469 259.667969 59.796875 L 249.226562 58.832031 L 245.148438 55.34375 L 234.5625 52.40625 L 252.347656 74.558594 L 225.550781 74.5 L 219.570312 63.078125 L 211.445312 60.824219 L 215.578125 86.160156 L 254.570312 89.46875 L 238.050781 116.59375 L 248.898438 114.929688 L 257.84375 106.246094 L 265.742188 106.777344 C 266.390625 106.824219 266.953125 106.332031 266.996094 105.683594 C 267.039062 105.039062 266.550781 104.476562 265.902344 104.433594 L 260.109375 104.042969 L 264.335938 99.9375 L 271.054688 100.390625 C 271.703125 100.4375 272.261719 99.945312 272.308594 99.296875 C 272.351562 98.652344 271.863281 98.089844 271.210938 98.046875 L 266.605469 97.734375 L 275.429688 89.167969 C 275.429688 89.167969 307.878906 89.644531 309.761719 85.085938 L 307.25 83.128906 " fill-opacity="1" fill-rule="nonzero"/></g><g clip-path="url(#id2)"><path fill="#ff1616" d="M 311.324219 196.371094 C 310.082031 254.917969 262.152344 301.996094 203.207031 301.996094 C 143.480469 301.996094 95.0625 253.664062 95.0625 194.046875 C 95.0625 134.429688 143.480469 86.101562 203.207031 86.101562 C 207.429688 86.101562 212.457031 85.730469 216.554688 86.199219 C 219.738281 83.695312 223.40625 83.5 227.25 82.84375 C 227.929688 82.726562 228.605469 82.613281 229.285156 82.496094 C 216.261719 77.847656 202.230469 75.3125 187.605469 75.3125 C 119.261719 75.3125 63.859375 130.613281 63.859375 198.832031 C 63.859375 267.050781 119.261719 322.351562 187.605469 322.351562 C 255.945312 322.351562 311.351562 267.050781 311.351562 198.832031 C 311.351562 198.007812 311.339844 197.191406 311.324219 196.371094 " fill-opacity="1" fill-rule="nonzero"/></g><path fill="#ff1616" d="M 220.582031 86.199219 L 187.605469 86.199219 L 187.605469 75.3125 L 220.582031 75.3125 L 220.582031 86.199219 " fill-opacity="1" fill-rule="nonzero"/><path fill="#ffffff" d="M 278.621094 135.511719 C 286.394531 149.386719 290.828125 165.375 290.828125 182.398438 C 290.828125 235.527344 247.679688 278.597656 194.457031 278.597656 C 164.425781 278.597656 137.605469 264.886719 119.929688 243.394531 C 136.414062 272.8125 167.921875 292.707031 204.09375 292.707031 C 257.320312 292.707031 300.46875 249.636719 300.46875 196.507812 C 300.46875 173.355469 292.273438 152.113281 278.621094 135.511719 " fill-opacity="1" fill-rule="nonzero"/><g fill="#ffffff" fill-opacity="1"><g transform="translate(154.443613, 145.811377)"><g><path d="M 12.078125 0 L 34.285156 0 C 34.96875 0 35.601562 -0.632812 35.601562 -1.371094 L 35.65625 -24 C 35.65625 -24.738281 35.023438 -25.316406 34.285156 -25.316406 L 21.152344 -25.316406 C 20.464844 -25.316406 19.832031 -24.683594 19.832031 -23.945312 L 19.777344 -15.558594 C 19.777344 -14.820312 19.144531 -14.242188 18.460938 -14.242188 C 17.722656 -14.242188 17.140625 -14.820312 17.140625 -15.558594 L 17.140625 -26.636719 C 17.140625 -27.375 17.722656 -27.953125 18.460938 -27.953125 L 34.285156 -27.953125 C 35.023438 -27.953125 35.601562 -28.585938 35.601562 -29.324219 L 35.601562 -40.878906 C 35.601562 -41.617188 35.023438 -42.195312 34.285156 -42.195312 L 12.078125 -42.195312 C 5.855469 -42.195312 1.320312 -37.660156 1.320312 -31.4375 L 1.320312 -10.761719 C 1.320312 -4.535156 5.855469 0 12.078125 0 Z M 12.078125 0 "/></g></g></g><g fill="#ffffff" fill-opacity="1"><g transform="translate(193.63178, 145.811377)"><g><path d="M 2.691406 0 L 15.824219 0 C 16.5625 0 17.140625 -0.582031 17.140625 -1.320312 L 17.140625 -8.703125 C 17.140625 -9.441406 17.722656 -10.023438 18.460938 -10.023438 C 19.199219 -10.023438 19.777344 -9.386719 19.777344 -8.648438 L 19.777344 -1.320312 C 19.777344 -0.582031 20.414062 0 21.152344 0 L 34.285156 0 C 35.023438 0 35.601562 -0.582031 35.601562 -1.320312 L 35.601562 -31.4375 C 35.601562 -37.660156 31.066406 -42.195312 24.84375 -42.195312 L 12.078125 -42.195312 C 5.855469 -42.195312 1.320312 -37.660156 1.320312 -31.4375 L 1.320312 -1.320312 C 1.320312 -0.582031 1.953125 0 2.691406 0 Z M 18.460938 -22.679688 C 17.722656 -22.679688 17.140625 -23.261719 17.140625 -24 L 17.140625 -28.21875 C 17.140625 -28.957031 17.722656 -29.535156 18.460938 -29.535156 C 19.199219 -29.535156 19.777344 -28.957031 19.777344 -28.21875 L 19.777344 -24 C 19.777344 -23.261719 19.199219 -22.679688 18.460938 -22.679688 Z M 18.460938 -22.679688 "/></g></g></g><g fill="#ff1616" fill-opacity="1"><g transform="translate(109.758769, 227.874976)"><g><path d="M 4.75 0 L 28.5 0 C 29.828125 0 30.875 -1.140625 30.875 -2.46875 L 30.875 -24.699219 C 30.875 -26.027344 31.917969 -27.074219 33.25 -27.074219 L 47.496094 -27.074219 C 48.828125 -27.074219 49.871094 -26.027344 49.871094 -24.699219 L 49.871094 -2.375 C 49.871094 -1.046875 50.917969 0 52.246094 0 L 75.996094 0 C 77.324219 0 78.371094 -1.140625 78.371094 -2.46875 L 78.371094 -25.933594 C 78.371094 -31.539062 74.285156 -35.625 68.679688 -35.625 L 67.828125 -35.625 C 66.496094 -35.625 65.453125 -36.667969 65.453125 -37.996094 C 65.453125 -39.328125 66.496094 -40.371094 67.828125 -40.371094 L 68.679688 -40.371094 C 74.285156 -40.371094 78.371094 -44.457031 78.371094 -50.0625 L 78.371094 -60.511719 C 78.371094 -69.441406 71.816406 -75.996094 62.886719 -75.996094 L 4.75 -75.996094 C 3.417969 -75.996094 2.375 -74.949219 2.375 -73.621094 L 2.375 -2.375 C 2.375 -1.046875 3.417969 0 4.75 0 Z M 33.25 -48.921875 C 31.917969 -48.921875 30.875 -49.96875 30.875 -51.296875 C 30.875 -52.628906 31.917969 -53.671875 33.25 -53.671875 L 47.496094 -53.671875 C 48.828125 -53.671875 49.871094 -52.628906 49.871094 -51.296875 C 49.871094 -49.96875 48.828125 -48.921875 47.496094 -48.921875 Z M 33.25 -48.921875 "/></g></g></g><g fill="#ff1616" fill-opacity="1"><g transform="translate(194.492164, 227.874976)"><g><path d="M 21.753906 0 L 75.996094 0 C 77.324219 0 78.371094 -1.140625 78.371094 -2.46875 L 78.371094 -23.273438 C 78.371094 -24.605469 77.324219 -25.648438 75.996094 -25.648438 L 33.25 -25.648438 C 31.917969 -25.648438 30.875 -26.695312 30.875 -28.023438 L 30.875 -47.972656 C 30.875 -49.300781 31.917969 -50.347656 33.25 -50.347656 L 75.996094 -50.347656 C 77.324219 -50.347656 78.371094 -51.488281 78.371094 -52.816406 L 78.371094 -73.621094 C 78.371094 -74.949219 77.324219 -75.996094 75.996094 -75.996094 L 21.753906 -75.996094 C 10.542969 -75.996094 2.375 -67.828125 2.375 -56.617188 L 2.375 -19.378906 C 2.375 -8.167969 10.542969 0 21.753906 0 Z M 21.753906 0 "/></g></g></g><g fill="#ffffff" fill-opacity="1"><g transform="translate(143.909517, 254.854085)"><g><path d="M 1.019531 0 L 16.039062 0 C 16.320312 0 16.539062 -0.21875 16.539062 -0.5 L 16.539062 -4.304688 C 16.539062 -4.585938 16.300781 -4.804688 16.019531 -4.804688 L 7.007812 -4.804688 C 6.726562 -4.804688 6.507812 -5.027344 6.507812 -5.304688 C 6.507812 -5.585938 6.726562 -5.808594 7.007812 -5.808594 L 15.238281 -5.808594 C 15.519531 -5.808594 15.738281 -6.027344 15.738281 -6.308594 L 15.738281 -9.710938 C 15.738281 -9.992188 15.5 -10.210938 15.21875 -10.210938 L 7.007812 -10.210938 C 6.726562 -10.210938 6.507812 -10.433594 6.507812 -10.714844 C 6.507812 -10.992188 6.726562 -11.214844 7.007812 -11.214844 L 16.039062 -11.214844 C 16.320312 -11.214844 16.539062 -11.433594 16.539062 -11.714844 L 16.539062 -15.519531 C 16.539062 -15.800781 16.320312 -16.019531 16.039062 -16.019531 L 1 -16.019531 C 0.722656 -16.019531 0.5 -15.800781 0.5 -15.519531 L 0.5 -0.5 C 0.5 -0.21875 0.742188 0 1.019531 0 Z M 1.019531 0 "/></g></g></g><g fill="#ffffff" fill-opacity="1"><g transform="translate(161.791097, 254.854085)"><g><path d="M 1.019531 0 L 6.007812 0 C 6.289062 0 6.507812 -0.21875 6.507812 -0.5 L 6.507812 -5.507812 C 6.507812 -5.789062 6.269531 -6.007812 5.988281 -6.007812 L 1 -6.007812 C 0.722656 -6.007812 0.5 -5.789062 0.5 -5.507812 L 0.5 -0.5 C 0.5 -0.21875 0.742188 0 1.019531 0 Z M 1.019531 0 "/></g></g></g><g fill="#ffffff" fill-opacity="1"><g transform="translate(169.640617, 254.854085)"><g/></g></g><g fill="#ffffff" fill-opacity="1"><g transform="translate(175.48773, 254.854085)"><g><path d="M 1 0 L 16.019531 0 C 16.300781 0 16.519531 -0.21875 16.519531 -0.5 L 16.519531 -4.207031 C 16.519531 -4.484375 16.300781 -4.707031 16.019531 -4.707031 L 7.007812 -4.707031 C 6.726562 -4.707031 6.507812 -4.925781 6.507812 -5.207031 C 6.507812 -5.488281 6.726562 -5.707031 7.007812 -5.707031 L 12.433594 -5.707031 C 14.796875 -5.707031 16.519531 -7.429688 16.519531 -9.792969 L 16.519531 -11.933594 C 16.519531 -14.296875 14.796875 -16.019531 12.433594 -16.019531 L 1 -16.019531 C 0.722656 -16.019531 0.5 -15.800781 0.5 -15.519531 L 0.5 -11.914062 C 0.5 -11.632812 0.722656 -11.414062 1 -11.414062 L 10.011719 -11.414062 C 10.292969 -11.414062 10.511719 -11.195312 10.511719 -10.914062 C 10.511719 -10.632812 10.292969 -10.414062 10.011719 -10.414062 L 4.585938 -10.414062 C 2.222656 -10.414062 0.5 -8.691406 0.5 -6.328125 L 0.5 -0.5 C 0.5 -0.21875 0.722656 0 1 0 Z M 1 0 "/></g></g></g><g fill="#ffffff" fill-opacity="1"><g transform="translate(193.349288, 254.854085)"><g><path d="M 4.585938 0 L 9.433594 0 C 11.792969 0 13.515625 -1.722656 13.515625 -4.085938 L 13.515625 -11.933594 C 13.515625 -14.296875 11.792969 -16.019531 9.433594 -16.019531 L 4.585938 -16.019531 C 2.222656 -16.019531 0.5 -14.296875 0.5 -11.933594 L 0.5 -4.085938 C 0.5 -1.722656 2.222656 0 4.585938 0 Z M 7.007812 -4.605469 C 6.726562 -4.605469 6.507812 -4.824219 6.507812 -5.105469 L 6.507812 -10.914062 C 6.507812 -11.195312 6.726562 -11.414062 7.007812 -11.414062 C 7.289062 -11.414062 7.507812 -11.195312 7.507812 -10.914062 L 7.507812 -5.105469 C 7.507812 -4.824219 7.289062 -4.605469 7.007812 -4.605469 Z M 7.007812 -4.605469 "/></g></g></g><g fill="#ffffff" fill-opacity="1"><g transform="translate(208.207233, 254.854085)"><g><path d="M 1 0 L 16.019531 0 C 16.300781 0 16.519531 -0.21875 16.519531 -0.5 L 16.519531 -4.207031 C 16.519531 -4.484375 16.300781 -4.707031 16.019531 -4.707031 L 7.007812 -4.707031 C 6.726562 -4.707031 6.507812 -4.925781 6.507812 -5.207031 C 6.507812 -5.488281 6.726562 -5.707031 7.007812 -5.707031 L 12.433594 -5.707031 C 14.796875 -5.707031 16.519531 -7.429688 16.519531 -9.792969 L 16.519531 -11.933594 C 16.519531 -14.296875 14.796875 -16.019531 12.433594 -16.019531 L 1 -16.019531 C 0.722656 -16.019531 0.5 -15.800781 0.5 -15.519531 L 0.5 -11.914062 C 0.5 -11.632812 0.722656 -11.414062 1 -11.414062 L 10.011719 -11.414062 C 10.292969 -11.414062 10.511719 -11.195312 10.511719 -10.914062 C 10.511719 -10.632812 10.292969 -10.414062 10.011719 -10.414062 L 4.585938 -10.414062 C 2.222656 -10.414062 0.5 -8.691406 0.5 -6.328125 L 0.5 -0.5 C 0.5 -0.21875 0.722656 0 1 0 Z M 1 0 "/></g></g></g><g fill="#ffffff" fill-opacity="1"><g transform="translate(226.068789, 254.854085)"><g><path d="M 1 0 L 14.015625 0 C 14.296875 0 14.519531 -0.242188 14.519531 -0.519531 L 14.519531 -4.90625 C 14.519531 -5.1875 14.296875 -5.40625 14.015625 -5.40625 L 11.011719 -5.40625 C 10.734375 -5.40625 10.511719 -5.648438 10.511719 -5.925781 L 10.511719 -15.519531 C 10.511719 -15.800781 10.273438 -16.019531 9.992188 -16.019531 L 1 -16.019531 C 0.722656 -16.019531 0.5 -15.78125 0.5 -15.5 L 0.5 -11.113281 C 0.5 -10.832031 0.722656 -10.613281 1 -10.613281 L 4.003906 -10.613281 C 4.285156 -10.613281 4.503906 -10.394531 4.503906 -10.113281 L 4.503906 -5.90625 C 4.503906 -5.628906 4.285156 -5.40625 4.003906 -5.40625 L 1 -5.40625 C 0.722656 -5.40625 0.5 -5.167969 0.5 -4.886719 L 0.5 -0.5 C 0.5 -0.21875 0.722656 0 1 0 Z M 1 0 "/></g></g></g></svg>